# xmcd CD database file
#
# Track frame offsets:
#	150
#	20072
#	32905
#	54802
#	72232
#	88455
#	105257
#	122655
#	141120
#	164809
#	176800
#	192950
#	236397
#	259205
#
# Disc length: 3744 seconds
#
# Revision: 0
# Processed by: cddbd v1.5.1PL0 Copyright (c) Steve Scherf et al.
# Submitted via: CDex 1.51
#
DISCID=c70e9e0e
DTITLE=Nöggi - ...ich miechti namal alles gliich
DYEAR=1995
DGENRE=Country
TTITLE0=Wie gaat's der?
TTITLE1=Für dich mach'i alles
TTITLE2=Kein Typ für e Viertelstund
TTITLE3=Ich michechti namal alles gliich
TTITLE4=Ghörsch d'Strasse vo Züri verzellä?
TTITLE5=Ich bi glaub im gliche Film
TTITLE6=Geischterbahn hät Uusgang
TTITLE7=Liebi, Freiheit und Vertroue
TTITLE8=Nur will'i en Maa bin
TTITLE9=Dä Herr im Himmel wott mich so
TTITLE10=I dä Garderobe
TTITLE11=s'Mädli
TTITLE12=Ich dänk a dich
TTITLE13=Zuegab
EXTD=YEAR: 1995
EXTT0=
EXTT1=
EXTT2=
EXTT3=
EXTT4=
EXTT5=
EXTT6=
EXTT7=
EXTT8=
EXTT9=
EXTT10=
EXTT11=
EXTT12=
EXTT13=
PLAYORDER=
